<?xml version="1.0" encoding="UTF-8"?> <svg xmlns="http://www.w3.org/2000/svg" id="Layer_2" viewBox="0 0 595.28 426.16"><defs><style>.cls-1,.cls-2{stroke-width:0px;}.cls-2{fill:#ed1c24;}</style></defs><g id="Layer_2-2"><path class="cls-2" d="m.04,226.06s-.97-5.57,6.81-7.19c7.78-1.62,32.76-3.03,48.11-2.49,15.35.54,23.24,1.3,29.19,1.84,5.95.54,16.86,1.84,20.43,19.35s10.38,52.87,10.38,52.87c0,0,.65,7.24,2.92,2.38s35.03-84.32,41.84-98.05c6.81-13.73,15.89-21.95,18.16-24.43s3.14-2.81,3.35,1.73c.22,4.54,1.95,22.49-.43,29.95s-16.86,38.92-21.3,51.68-14.16,47.78-17.41,62.7-3.68,31.46-12.22,31.14-23.14-1.19-27.24-6.59c-4.11-5.41-8.93-26.14-11.61-41.24-3.03-17.03-14.87-50.76-16.39-54s-2.65-4.54-4.43-4.27-15.08.59-15.08.59c0,0-.59,29.73-2.11,44.11-1.51,14.38-8.86,35.14-12.43,38.7s-6.05,7.14-6.38-.76c-.32-7.89-.54-51.68-.97-59.68-.43-8-2.05-20.43-7.03-20.11-4.97.32-20.22-.11-21.41,0s-3.69-.11-3.84-3.78-.91-14.43-.91-14.43Z"></path><path class="cls-2" d="m298.96,206.6c-2.76-20.11-22.54-25.78-35.68-25.46s-18.08.65-18.08.65c-7.05.16-23.76,1.22-30.97.81-7.22-.41-4.54,4.38-1.86,8.84s4.86,14.84,4.95,22.05c0,0-1.05,76.46-1.54,88.14-.49,11.68-1.46,13.95-6.19,19.3-4.73,5.35.19,7.14,3.92,6.97,3.73-.16,22.38-.32,30.16-.97,7.78-.65,5.35-5.03,3.24-8.11-2.11-3.08-6-15.89-6-19.14s0-29.19-.32-33.08c-.32-3.89,6.32-3.41,15.57-2.59,9.24.81,19.95-3.08,32.27-12,12.32-8.92,13.3-25.3,10.54-45.41Zm-32.27,30.97c-9.73,6.32-24.51,2.59-24.51,2.59l.18-25.78s-1.46-2.92,3.89-4.05c5.35-1.14,23.84-4.05,26.43,3.08,2.59,7.14,3.73,17.84-6,24.16Z"></path><path class="cls-2" d="m350.69,255.41s-.16-22.05-12.81-22.54c-12.65-.49-20.76,12.81-25.78,18.32-5.03,5.51-13.95,5.51-12.97-3.57s7.95-26.11,9.24-27.89,4.38-6.81,11.51-3.89c7.14,2.92,6,2.27,10.22,1.46,4.22-.81,23.03-4.86,34.05,5.19s9.08,39.41,8.92,48.16c-.16,8.76-1.46,29.51-1.46,33.57s-.08,6,2.76,7.38c2.84,1.38,10.78,4.95,10.78,4.95,0,0,.16-7.95,6-12.08,5.84-4.14,7.78-7.46,7.7-14.76-.08-7.3,0-51,0-51,0,0-14.03-5.03-14.68-8.92-.65-3.89-1.54-10.3,3.24-10.62,4.78-.32,13.14-2.59,16.95-4.7,3.81-2.11,9.65-3.81,15.16-.97,5.51,2.84,4.78,3.32,4.78,3.32l.03,14.03s6.54-8.92,9.94-12.41c3.41-3.49,10.05-6.57,16.14-1.86l2.43,2.43s7.62-3.49,10.3-5.11,5.27-4.46,7.62-11.84c2.35-7.38,6-17.35,12.49-18.73,6.49-1.38,7.46,0,7.46,0,0,0-1.86,18.24-.81,23.92s1.86,13.05,8.19,12c6.32-1.05,10.22-4.86,15.97-2.35,5.76,2.51,9.57,8.51,9.24,11.92-.32,3.41-2.92,8.59-9.57,8.68s-17.11.16-17.11.16c0,0-.08,48.49.08,56.76.16,8.27,3.65,10.7,8.27,10.78s10.05-4.86,12.97-5.43c0,0-3.81-15,9.16-16.22,12.97-1.22,10.54,10.86,14.51,14.19,3.97,3.32,9.97,11.03,20.19,8.51,10.22-2.51,11.19-11.76,6.41-18.49-4.78-6.73-12.32-12.81-27.08-18.24-14.76-5.43-17.59-22.14-14.43-31.87,3.16-9.73,19.46-34.14,45.16-18.41l-.89-3.08s8.51-2.59,12.97,1.14,10.05,16.62,11.19,28.7c1.14,12.08-5.76,10.22-8.76,7.7-3-2.51-17.11-16.86-26.19-17.35-9.08-.49-9.73,4.14-9.89,6.49s-.57,11.27,10.14,14.27,23.68,4.86,30.49,21.57c6.81,16.7,4.22,32.51-15.97,44.59,0,0-20.03,10.54-37.14-1.62,0,0-4.3,3.32-8.43,1.54s-6-5.51-6-5.51c0,0-6.81,10.83-24.57,9.83-17.76-1-28.7-6.91-29.19-29.7s0-60.73,0-60.73c0,0-7.95-.24-9-1.54,0,0-.16,5.27-3.24,9.65-3.08,4.38-8.43,4.62-14.92,1.22-6.49-3.41-11.19-5.43-18.49-3l-.16,56.11s10.62,7.14,11.43,15.32-3.32,13.3-14.11,13.3h-23.68c-4.3,0-10.38-3.97-11.03-5.43,0,0-2.51,5.43-10.86,5.43h-17.84c-2.59,0-11.76-1.62-11.76-13.38s3.32-29.11,3.32-29.11c0,0,1.38-4.38-1.86-4.46s-17.11-1.78-21,10.3c-3.89,12.08,8.11,16.54,11.51,17.51s6,6.65,5.27,7.05-9.97,7.62-19.78,7.62-25.22-12.32-25.22-30.08,12.89-25.3,29.59-33.24c16.7-7.95,22.87-4.95,22.87-4.95Z"></path><path class="cls-1" d="m241.88,105.41l-61.46-43.46,86.27,41.19L354.26,0s-56.92,87.41-60.16,99.41c0,0,54.16-2.27,96.32-10.86,42.16-8.59,66.16-12.81,90.49-15.08,24.32-2.27,59.03,3.73,60,53.35s-2.43,63.73-2.43,63.73h-26.76s0-37.95-.32-53.03c-.32-15.08-.16-32.92-7.95-33.24-7.78-.32-72.97,5.03-102.49,9.41-29.51,4.38-148.38,20.76-184.22,26.11-35.84,5.35-124.22,18.97-137.51,20.11s-22.22,5.51-22.87,13.14-3.24,18.16-3.24,18.16h-24.49s-1.78-31.95,7.14-40.54c8.92-8.59,21.57-18.97,58.7-24,37.14-5.03,66.97-8.76,97.14-12.32s50.27-8.92,50.27-8.92Z"></path><path class="cls-1" d="m53.77,338.92l26.59,2.43s2.11,35.68,5.84,44.43c3.73,8.76,3.24,6.16,9.57,6.97s50.11,3.08,92.43,4.22c42.32,1.14,142.87.97,181.62.32,38.76-.65,84.65-2.27,96-3.08s19.46-4.54,19.62-21.89c.16-17.35-.65-31.46,1.95-34.22h23.35s3.89,18.81,3.08,32.27c-.81,13.46-5.68,43.95-29.19,52.05,0,0-6.65,3.73-38.59,3.73h-223.95c-36.32,0-88.38-.49-118.05-1.62-29.68-1.14-40.54-14.27-45.57-32.43-5.03-18.16-4.7-53.19-4.7-53.19Z"></path></g></svg> 